# 3ds Max Wavefront OBJ Exporter v0.97b - (c)2007 guruware
# File Created: 19.03.2014 20:11:11

mtllib backBlock.mtl

#
# object Box001
#

v  325.6290 0.4308 112.8792
v  325.6290 0.4308 -479.4323
v  546.7587 0.4308 -479.4323
v  546.7587 0.4308 112.8792
v  325.6290 120.0189 112.8792
v  546.7587 120.0189 112.8792
v  546.7587 120.0189 -479.4323
v  325.6290 120.0189 -479.4323
# 8 vertices

vn 0.0000 -1.0000 -0.0000
vn 0.0000 1.0000 -0.0000
vn 0.0000 0.0000 1.0000
vn 1.0000 0.0000 -0.0000
vn 0.0000 0.0000 -1.0000
vn -1.0000 0.0000 -0.0000
# 6 vertex normals

vt -0.7197 0.4967 0.0000
vt 1.5806 0.4967 0.0000
vt 1.5806 1.3555 0.0000
vt -0.7197 1.3555 0.0000
vt -0.7197 -0.3451 0.0000
vt -0.7197 -1.2039 0.0000
vt 1.5806 -1.2039 0.0000
vt 1.5806 -0.3451 0.0000
vt -0.0000 0.0000 0.0000
vt 1.0000 0.0000 0.0000
vt 1.0000 1.0000 0.0000
vt -0.0000 1.0000 0.0000
vt 1.5806 2.1974 0.0000
vt -0.7197 2.1974 0.0000
# 14 texture coords

g Box001
usemtl 09___Default
f 1/1/1 2/2/1 3/3/1 
f 3/3/1 4/4/1 1/1/1 
f 5/5/2 6/6/2 7/7/2 
f 7/7/2 8/8/2 5/5/2 
f 1/9/3 4/10/3 6/11/3 
f 6/11/3 5/12/3 1/9/3 
f 4/4/4 3/3/4 7/13/4 
f 7/13/4 6/14/4 4/4/4 
f 3/10/5 2/9/5 8/12/5 
f 8/12/5 7/11/5 3/10/5 
f 2/2/6 1/1/6 5/5/6 
f 5/5/6 8/8/6 2/2/6 
# 12 faces

