# 3ds Max Wavefront OBJ Exporter v0.97b - (c)2007 guruware
# File Created: 19.03.2014 20:08:28

mtllib roofCols3.mtl

#
# object Object001
#

v  219.2107 95.2344 290.7113
v  219.2107 95.2344 273.5793
v  236.3427 95.2344 273.5793
v  236.3427 95.2344 290.7113
v  219.2107 175.7545 290.7113
v  236.3427 175.7545 290.7113
v  236.3427 175.7545 273.5793
v  219.2107 175.7545 273.5793
v  236.3427 155.1962 290.7113
v  219.2107 155.1962 290.7113
v  236.3427 155.1962 273.5793
v  219.2107 155.1962 273.5793
v  219.2107 155.1962 294.2519
v  236.3427 155.1962 294.2519
v  236.3427 172.3281 307.8433
v  219.2107 172.3281 307.8433
v  239.9868 155.1962 290.7113
v  239.9868 155.1962 273.5793
v  253.4746 172.3281 273.5793
v  253.4746 172.3281 290.7113
v  236.3427 155.1962 270.4937
v  219.2107 155.1962 270.4937
v  219.2107 172.3281 256.4474
v  236.3427 172.3281 256.4474
v  216.0891 155.1962 273.5793
v  216.0891 155.1962 290.7113
v  202.0788 172.3281 290.7113
v  202.0788 172.3281 273.5793
v  236.3427 172.3281 290.7113
v  219.2107 175.7545 307.8433
v  236.3427 175.7545 307.8433
v  219.2107 172.3281 290.7113
v  236.3427 172.3281 273.5793
v  253.4746 175.7545 290.7113
v  253.4746 175.7545 273.5793
v  219.2107 172.3281 273.5793
v  236.3427 175.7545 256.4474
v  219.2107 175.7545 256.4474
v  202.0788 175.7545 273.5793
v  202.0788 175.7545 290.7113
# 40 vertices

vn 0.0000 -1.0000 -0.0000
vn 0.0000 1.0000 -0.0000
vn 0.0000 0.0000 1.0000
vn 1.0000 0.0000 -0.0000
vn 0.0000 0.0000 -1.0000
vn -1.0000 0.0000 -0.0000
vn 0.0000 -0.6215 0.7834
vn 0.7857 -0.6186 -0.0000
vn 0.0000 -0.6340 -0.7733
vn -0.7741 -0.6331 -0.0000
# 10 vertex normals

vt 0.3478 0.1464 0.0000
vt 0.3478 0.0118 0.0000
vt 0.4824 0.0118 0.0000
vt 0.4824 0.1464 0.0000
vt 0.2156 0.2739 0.0000
vt 0.3503 0.2739 0.0000
vt 0.3503 0.4086 0.0000
vt 0.2156 0.4086 0.0000
vt 0.8377 0.9923 0.0000
vt 0.7031 0.9923 0.0000
vt 0.7031 0.5212 0.0000
vt 0.8377 0.5212 0.0000
vt 0.6855 0.9891 0.0000
vt 0.5509 0.9891 0.0000
vt 0.5509 0.5180 0.0000
vt 0.6855 0.5180 0.0000
vt 0.4962 0.9827 0.0000
vt 0.3616 0.9827 0.0000
vt 0.3616 0.5115 0.0000
vt 0.4962 0.5115 0.0000
vt 0.3007 0.9660 0.0000
vt 0.1661 0.9660 0.0000
vt 0.1661 0.4948 0.0000
vt 0.3007 0.4948 0.0000
vt 0.2172 0.1812 0.0000
vt 0.3518 0.1812 0.0000
vt 0.3518 0.2880 0.0000
vt 0.2172 0.2880 0.0000
vt 0.5191 0.1464 0.0000
vt 0.5191 0.0118 0.0000
vt 0.6251 0.0118 0.0000
vt 0.6251 0.1464 0.0000
vt 0.6251 0.4076 0.0000
vt 0.4904 0.4076 0.0000
vt 0.4904 0.2972 0.0000
vt 0.6251 0.2972 0.0000
vt 0.7432 0.0118 0.0000
vt 0.7432 0.1464 0.0000
vt 0.6331 0.1464 0.0000
vt 0.6331 0.0118 0.0000
vt 0.2172 0.1534 0.0000
vt 0.3518 0.1534 0.0000
vt 0.4280 0.3122 0.0000
vt 0.5626 0.3122 0.0000
vt 0.5626 0.4468 0.0000
vt 0.4280 0.3400 0.0000
vt 0.6251 0.2891 0.0000
vt 0.4904 0.2891 0.0000
vt 0.4904 0.1545 0.0000
vt 0.6251 0.1545 0.0000
vt 0.7786 0.3369 0.0000
vt 0.6440 0.3369 0.0000
vt 0.6440 0.3090 0.0000
vt 0.7786 0.2022 0.0000
vt 0.4904 0.1464 0.0000
vt 0.4904 0.0118 0.0000
vt 0.0234 0.1534 0.0000
vt 0.1580 0.1534 0.0000
vt 0.1580 0.2880 0.0000
vt 0.0234 0.1820 0.0000
vt 0.3478 0.2891 0.0000
vt 0.3478 0.1545 0.0000
vt 0.4824 0.1545 0.0000
vt 0.4824 0.2891 0.0000
vt 0.3297 0.1480 0.0000
vt 0.1951 0.1480 0.0000
vt 0.1951 0.1194 0.0000
vt 0.3297 0.0134 0.0000
vt 0.6251 0.4318 0.0000
vt 0.4904 0.4318 0.0000
vt 0.0234 0.3203 0.0000
vt 0.1580 0.3203 0.0000
vt 0.1580 0.4550 0.0000
vt 0.0234 0.3446 0.0000
vt 0.6331 0.1545 0.0000
vt 0.7678 0.1545 0.0000
vt 0.7678 0.2891 0.0000
vt 0.6331 0.2891 0.0000
vt 0.7865 0.2838 0.0000
vt 0.6519 0.2838 0.0000
vt 0.6519 0.2595 0.0000
vt 0.7865 0.1492 0.0000
vt 0.7678 0.0118 0.0000
vt 0.7678 0.1464 0.0000
vt 0.4502 0.2022 0.0000
vt 0.5848 0.2022 0.0000
vt 0.5848 0.3369 0.0000
vt 0.4502 0.2268 0.0000
vt 0.4824 0.2972 0.0000
vt 0.4824 0.4318 0.0000
vt 0.3478 0.4318 0.0000
vt 0.3478 0.2972 0.0000
vt 0.1596 0.1401 0.0000
vt 0.0250 0.1401 0.0000
vt 0.0250 0.1156 0.0000
vt 0.1596 0.0055 0.0000
vt 0.3503 0.4436 0.0000
vt 0.2156 0.4436 0.0000
vt 0.2156 0.4166 0.0000
vt 0.3503 0.4166 0.0000
vt 0.9104 0.2326 0.0000
vt 0.7758 0.2326 0.0000
vt 0.7758 0.2057 0.0000
vt 0.9104 0.2057 0.0000
vt 0.9104 0.0387 0.0000
vt 0.7758 0.0387 0.0000
vt 0.7758 0.0118 0.0000
vt 0.9104 0.0118 0.0000
vt 0.7678 0.3241 0.0000
vt 0.6331 0.3241 0.0000
vt 0.6331 0.2972 0.0000
vt 0.7678 0.2972 0.0000
vt 0.9104 0.0899 0.0000
vt 0.7758 0.0899 0.0000
vt 0.7758 0.0630 0.0000
vt 0.9104 0.0630 0.0000
vt 0.8055 0.2022 0.0000
vt 0.8055 0.3369 0.0000
vt 0.7678 0.3753 0.0000
vt 0.6331 0.3753 0.0000
vt 0.6331 0.3484 0.0000
vt 0.7678 0.3484 0.0000
vt 0.5895 0.3122 0.0000
vt 0.5895 0.4468 0.0000
vt 0.9104 0.1814 0.0000
vt 0.7758 0.1814 0.0000
vt 0.7758 0.1545 0.0000
vt 0.9104 0.1545 0.0000
vt 0.3566 0.0134 0.0000
vt 0.3566 0.1480 0.0000
vt 0.9108 0.3273 0.0000
vt 0.7762 0.3273 0.0000
vt 0.7762 0.3004 0.0000
vt 0.9108 0.3004 0.0000
vt 0.1849 0.1534 0.0000
vt 0.1849 0.2880 0.0000
vt 0.9108 0.4296 0.0000
vt 0.7762 0.4296 0.0000
vt 0.7762 0.4027 0.0000
vt 0.9108 0.4027 0.0000
vt 0.8134 0.1492 0.0000
vt 0.8134 0.2838 0.0000
vt 0.7757 0.2576 0.0000
vt 0.6411 0.2576 0.0000
vt 0.6411 0.2307 0.0000
vt 0.7757 0.2307 0.0000
vt 0.1849 0.3203 0.0000
vt 0.1849 0.4550 0.0000
vt 0.7678 0.4264 0.0000
vt 0.6331 0.4264 0.0000
vt 0.6331 0.3995 0.0000
vt 0.7678 0.3995 0.0000
vt 0.1865 0.0055 0.0000
vt 0.1865 0.1401 0.0000
vt 0.9108 0.3784 0.0000
vt 0.7762 0.3784 0.0000
vt 0.7762 0.3515 0.0000
vt 0.9108 0.3515 0.0000
vt 0.6117 0.2022 0.0000
vt 0.6117 0.3369 0.0000
# 160 texture coords

g Object001
usemtl 03___Default
f 1/1/1 2/2/1 3/3/1 
f 3/3/1 4/4/1 1/1/1 
f 5/5/2 6/6/2 7/7/2 
f 7/7/2 8/8/2 5/5/2 
f 1/9/3 4/10/3 9/11/3 
f 9/11/3 10/12/3 1/9/3 
f 4/13/4 3/14/4 11/15/4 
f 11/15/4 9/16/4 4/13/4 
f 3/17/5 2/18/5 12/19/5 
f 12/19/5 11/20/5 3/17/5 
f 2/21/6 1/22/6 10/23/6 
f 10/23/6 12/24/6 2/21/6 
f 13/25/7 14/26/7 15/27/7 
f 15/27/7 16/28/7 13/25/7 
f 17/29/8 18/30/8 19/31/8 
f 19/31/8 20/32/8 17/29/8 
f 21/33/9 22/34/9 23/35/9 
f 23/35/9 24/36/9 21/33/9 
f 25/37/10 26/38/10 27/39/10 
f 27/39/10 28/40/10 25/37/10 
f 10/41/1 9/42/1 14/26/1 
f 14/26/1 13/25/1 10/41/1 
f 9/43/4 29/44/4 15/45/4 
f 15/45/4 14/46/4 9/43/4 
f 6/47/2 5/48/2 30/49/2 
f 30/49/2 31/50/2 6/47/2 
f 32/51/6 10/52/6 13/53/6 
f 13/53/6 16/54/6 32/51/6 
f 9/55/1 11/56/1 18/30/1 
f 18/30/1 17/29/1 9/55/1 
f 11/57/5 33/58/5 19/59/5 
f 19/59/5 18/60/5 11/57/5 
f 7/61/2 6/62/2 34/63/2 
f 34/63/2 35/64/2 7/61/2 
f 29/65/3 9/66/3 17/67/3 
f 17/67/3 20/68/3 29/65/3 
f 11/69/1 12/70/1 22/34/1 
f 22/34/1 21/33/1 11/69/1 
f 12/71/6 36/72/6 23/73/6 
f 23/73/6 22/74/6 12/71/6 
f 8/75/2 7/76/2 37/77/2 
f 37/77/2 38/78/2 8/75/2 
f 33/79/4 11/80/4 21/81/4 
f 21/81/4 24/82/4 33/79/4 
f 12/83/1 10/84/1 26/38/1 
f 26/38/1 25/37/1 12/83/1 
f 10/85/3 32/86/3 27/87/3 
f 27/87/3 26/88/3 10/85/3 
f 5/89/2 8/90/2 39/91/2 
f 39/91/2 40/92/2 5/89/2 
f 36/93/5 12/94/5 25/95/5 
f 25/95/5 28/96/5 36/93/5 
f 32/97/3 29/98/3 6/99/3 
f 6/99/3 5/100/3 32/97/3 
f 29/101/4 33/102/4 7/103/4 
f 7/103/4 6/104/4 29/101/4 
f 33/105/5 36/106/5 8/107/5 
f 8/107/5 7/108/5 33/105/5 
f 36/109/6 32/110/6 5/111/6 
f 5/111/6 8/112/6 36/109/6 
f 29/113/5 32/114/5 5/115/5 
f 5/115/5 6/116/5 29/113/5 
f 32/51/6 16/54/6 30/117/6 
f 30/117/6 5/118/6 32/51/6 
f 16/119/3 15/120/3 31/121/3 
f 31/121/3 30/122/3 16/119/3 
f 15/45/4 29/44/4 6/123/4 
f 6/123/4 31/124/4 15/45/4 
f 33/125/6 29/126/6 6/127/6 
f 6/127/6 7/128/6 33/125/6 
f 29/65/3 20/68/3 34/129/3 
f 34/129/3 6/130/3 29/65/3 
f 20/131/4 19/132/4 35/133/4 
f 35/133/4 34/134/4 20/131/4 
f 19/59/5 33/58/5 7/135/5 
f 7/135/5 35/136/5 19/59/5 
f 36/137/3 33/138/3 7/139/3 
f 7/139/3 8/140/3 36/137/3 
f 33/79/4 24/82/4 37/141/4 
f 37/141/4 7/142/4 33/79/4 
f 24/143/5 23/144/5 38/145/5 
f 38/145/5 37/146/5 24/143/5 
f 23/73/6 36/72/6 8/147/6 
f 8/147/6 38/148/6 23/73/6 
f 32/149/4 36/150/4 8/151/4 
f 8/151/4 5/152/4 32/149/4 
f 36/93/5 28/96/5 39/153/5 
f 39/153/5 8/154/5 36/93/5 
f 28/155/6 27/156/6 40/157/6 
f 40/157/6 39/158/6 28/155/6 
f 27/87/3 32/86/3 5/159/3 
f 5/159/3 40/160/3 27/87/3 
# 92 faces

