# 3ds Max Wavefront OBJ Exporter v0.97b - (c)2007 guruware
# File Created: 19.03.2014 20:06:06

mtllib roof.mtl

#
# object Box035
#

v  -216.1038 118.6046 323.7215
v  -175.9310 118.6046 173.7945
v  -105.7903 118.6046 192.5887
v  -145.9631 118.6046 342.5156
v  -185.0269 159.8504 332.0485
v  -177.0400 159.8504 334.1886
v  -136.8672 159.8504 184.2616
v  -144.8541 159.8504 182.1216
v  -135.4349 118.6046 323.7215
v  -95.2621 118.6046 173.7945
v  -25.1214 118.6046 192.5887
v  -65.2942 118.6046 342.5156
v  -104.3580 159.8504 332.0485
v  -96.3711 159.8504 334.1886
v  -56.1983 159.8504 184.2616
v  -64.1852 159.8504 182.1216
v  -54.7660 118.6046 323.7215
v  -14.5932 118.6046 173.7945
v  55.5475 118.6046 192.5887
v  15.3746 118.6046 342.5156
v  -23.6891 159.8504 332.0485
v  -15.7023 159.8504 334.1886
v  24.4706 159.8504 184.2616
v  16.4837 159.8504 182.1216
v  25.9029 118.6046 323.7215
v  66.0757 118.6046 173.7945
v  136.2163 118.6046 192.5887
v  96.0435 118.6046 342.5156
v  56.9798 159.8504 332.0485
v  64.9666 159.8504 334.1886
v  105.1394 159.8504 184.2616
v  97.1526 159.8504 182.1216
v  106.5717 118.6046 323.7215
v  146.7446 118.6046 173.7945
v  216.8852 118.6046 192.5887
v  176.7124 118.6046 342.5156
v  137.6487 159.8504 332.0485
v  145.6355 159.8504 334.1886
v  185.8083 159.8504 184.2616
v  177.8215 159.8504 182.1216
v  228.6884 118.6046 361.2290
v  228.6884 118.6046 165.1732
v  295.3219 118.6046 165.1731
v  295.3219 118.6046 361.2290
v  258.2114 159.8504 361.2290
v  265.7989 159.8504 361.2290
v  265.7989 159.8504 165.1732
v  258.2115 159.8504 165.1732
v  399.8162 118.6046 245.4063
v  399.8161 118.6046 108.6189
v  466.4497 118.6046 108.6189
v  466.4496 118.6046 245.4063
v  429.3391 159.8504 245.4063
v  436.9266 159.8504 245.4063
v  436.9267 159.8504 108.6189
v  429.3391 159.8504 108.6189
v  494.4378 118.6046 92.9734
v  328.1432 118.6046 92.9734
v  328.1432 118.6046 26.3399
v  494.4378 118.6046 26.3399
v  494.4378 159.8504 63.4504
v  494.4378 159.8504 55.8629
v  328.1432 159.8504 55.8629
v  328.1432 159.8504 63.4504
v  494.4378 118.6046 14.6380
v  328.1432 118.6046 14.6381
v  328.1432 118.6046 -51.9954
v  494.4378 118.6046 -51.9954
v  494.4378 159.8504 -14.8849
v  494.4378 159.8504 -22.4724
v  328.1432 159.8504 -22.4724
v  328.1432 159.8504 -14.8849
v  494.4378 118.6046 -63.6973
v  328.1432 118.6046 -63.6973
v  328.1432 118.6046 -130.3307
v  494.4378 118.6046 -130.3308
v  494.4378 159.8504 -93.2202
v  494.4378 159.8504 -100.8077
v  328.1432 159.8504 -100.8078
v  328.1432 159.8504 -93.2202
v  494.4378 118.6046 -142.0325
v  328.1432 118.6046 -142.0325
v  328.1432 118.6046 -208.6660
v  494.4378 118.6046 -208.6660
v  494.4378 159.8504 -171.5555
v  494.4378 159.8504 -179.1430
v  328.1432 159.8504 -179.1430
v  328.1432 159.8504 -171.5555
v  494.4378 118.6046 -220.3679
v  328.1432 118.6046 -220.3679
v  328.1432 118.6046 -287.0013
v  494.4378 118.6046 -287.0013
v  494.4378 159.8504 -249.8908
v  494.4378 159.8504 -257.4783
v  328.1432 159.8504 -257.4784
v  328.1432 159.8504 -249.8908
v  494.4378 118.6046 -298.7032
v  328.1432 118.6046 -298.7032
v  328.1432 118.6046 -365.3367
v  494.4378 118.6046 -365.3367
v  494.4378 159.8504 -328.2263
v  494.4378 159.8504 -335.8137
v  328.1432 159.8504 -335.8137
v  328.1432 159.8504 -328.2262
v  494.4378 118.6046 -377.0385
v  328.1432 118.6046 -377.0385
v  328.1432 118.6046 -443.6719
v  494.4378 118.6046 -443.6720
v  494.4378 159.8504 -406.5615
v  494.4378 159.8504 -414.1490
v  328.1432 159.8504 -414.1489
v  328.1432 159.8504 -406.5615
v  544.2799 118.6046 -461.7889
v  544.2799 118.6046 98.3874
v  501.3534 118.6046 98.3874
v  501.3534 118.6046 -461.7888
v  525.2606 145.1760 -461.7888
v  520.3726 145.1760 -461.7888
v  520.3727 145.1760 98.3874
v  525.2606 145.1760 98.3874
v  215.9715 136.4308 -17.9268
v  121.7734 136.4308 -17.9268
v  121.7733 136.4308 -71.3998
v  215.9715 136.4308 -71.3999
v  215.9715 166.8038 -41.6189
v  215.9715 166.8038 -47.7078
v  121.7733 166.8038 -47.7078
v  121.7734 166.8038 -41.6189
v  25.8044 136.4308 11.6466
v  -68.3938 136.4308 11.6467
v  -68.3938 136.4308 -32.2454
v  25.8043 136.4308 -32.2454
v  25.8044 166.8038 -7.8004
v  25.8044 166.8038 -12.7984
v  -68.3938 166.8038 -12.7984
v  -68.3938 166.8038 -7.8004
v  -163.8434 136.4308 39.5478
v  -248.7607 136.4308 39.5478
v  -248.7607 136.4308 9.2748
v  -163.8434 136.4308 9.2748
v  -163.8434 157.0612 26.1349
v  -163.8434 157.0612 22.6877
v  -248.7607 157.0612 22.6877
v  -248.7607 157.0612 26.1349
v  -348.4892 118.6046 58.2937
v  263.5296 118.6046 58.2937
v  263.5296 118.6046 127.9098
v  -348.4892 118.6046 127.9098
v  -348.4892 159.8504 89.1382
v  -348.4892 159.8504 97.0654
v  263.5295 159.8504 97.0653
v  263.5295 159.8504 89.1382
# 152 vertices

vn 0.0000 -1.0000 -0.0000
vn 0.0000 1.0000 -0.0000
vn -0.2588 0.0000 0.9659
vn 0.8358 0.5013 0.2239
vn 0.2588 0.0000 -0.9659
vn -0.8358 0.5013 -0.2239
vn 0.0088 -0.0000 1.0000
vn 0.0088 0.0000 1.0000
vn 0.8825 0.4703 0.0076
vn -0.0088 0.0000 -1.0000
vn -0.8825 0.4703 -0.0076
vn -0.0088 -0.0000 -1.0000
vn 1.0000 0.0000 0.0086
vn 1.0000 -0.0000 0.0086
vn -0.0077 0.4813 -0.8765
vn -1.0000 -0.0000 -0.0086
vn -1.0000 0.0000 -0.0086
vn 0.0077 0.4813 0.8765
vn -0.0076 0.5135 -0.8581
vn 0.0076 0.5135 0.8581
vn -0.0079 0.4409 -0.8975
vn 0.0079 0.4409 0.8975
vn -0.0079 0.4463 -0.8948
vn 0.0079 0.4463 0.8948
vn 0.0077 0.4976 0.8674
vn -0.0077 0.4976 -0.8674
# 26 vertex normals

vt 0.7864 0.4761 0.0000
vt 0.6593 0.4761 0.0000
vt 0.6593 0.4187 0.0000
vt 0.7864 0.4187 0.0000
vt 0.0338 0.8757 0.0000
vt 0.0319 0.8302 0.0000
vt 0.9506 0.8289 0.0000
vt 0.9525 0.8745 0.0000
vt 0.1104 0.0828 0.0000
vt 0.7016 0.0946 0.0000
vt 0.4297 0.3420 0.0000
vt 0.3708 0.3425 0.0000
vt 0.0360 0.7560 0.0000
vt 0.9664 0.7697 0.0000
vt 0.9711 0.9494 0.0000
vt 0.0407 0.9357 0.0000
vt 0.0286 0.7586 0.0000
vt 0.9677 0.7607 0.0000
vt 0.9747 0.9420 0.0000
vt 0.0356 0.9399 0.0000
vt 0.6218 0.5683 0.0000
vt 0.4948 0.5683 0.0000
vt 0.4948 0.5109 0.0000
vt 0.6218 0.5109 0.0000
vt 0.0401 0.8698 0.0000
vt 0.0382 0.8242 0.0000
vt 0.9569 0.8230 0.0000
vt 0.9588 0.8685 0.0000
vt 0.0495 0.7468 0.0000
vt 0.9799 0.7605 0.0000
vt 0.9845 0.9402 0.0000
vt 0.0541 0.9265 0.0000
vt 0.0213 0.7607 0.0000
vt 0.9604 0.7628 0.0000
vt 0.9674 0.9440 0.0000
vt 0.0282 0.9420 0.0000
vt 0.4573 0.7459 0.0000
vt 0.3302 0.7459 0.0000
vt 0.3302 0.6885 0.0000
vt 0.4573 0.6885 0.0000
vt 0.0534 0.8752 0.0000
vt 0.0515 0.8297 0.0000
vt 0.9702 0.8284 0.0000
vt 0.9721 0.8740 0.0000
vt 0.0396 0.7479 0.0000
vt 0.9700 0.7616 0.0000
vt 0.9746 0.9413 0.0000
vt 0.0442 0.9276 0.0000
vt 0.0233 0.7579 0.0000
vt 0.9624 0.7600 0.0000
vt 0.9694 0.9412 0.0000
vt 0.0303 0.9392 0.0000
vt 0.6125 0.6604 0.0000
vt 0.4854 0.6604 0.0000
vt 0.4854 0.6030 0.0000
vt 0.6125 0.6030 0.0000
vt 0.0459 0.8659 0.0000
vt 0.0440 0.8203 0.0000
vt 0.9627 0.8191 0.0000
vt 0.9646 0.8646 0.0000
vt 0.0342 0.7440 0.0000
vt 0.9646 0.7577 0.0000
vt 0.9693 0.9375 0.0000
vt 0.0389 0.9237 0.0000
vt 0.0206 0.7552 0.0000
vt 0.9597 0.7572 0.0000
vt 0.9667 0.9385 0.0000
vt 0.0276 0.9364 0.0000
vt 0.3016 0.7405 0.0000
vt 0.1745 0.7405 0.0000
vt 0.1745 0.6831 0.0000
vt 0.3016 0.6831 0.0000
vt 0.0397 0.8714 0.0000
vt 0.0378 0.8259 0.0000
vt 0.9565 0.8246 0.0000
vt 0.9584 0.8702 0.0000
vt 0.0388 0.7541 0.0000
vt 0.9692 0.7678 0.0000
vt 0.9739 0.9475 0.0000
vt 0.0435 0.9338 0.0000
vt 0.0227 0.7571 0.0000
vt 0.9618 0.7592 0.0000
vt 0.9688 0.9404 0.0000
vt 0.0296 0.9384 0.0000
vt 0.8450 0.0068 0.0000
vt 1.0045 0.0216 0.0000
vt 1.0006 0.0743 0.0000
vt 0.8411 0.0595 0.0000
vt 1.2424 0.6456 0.0000
vt 1.2424 0.6776 0.0000
vt 0.3454 0.6776 0.0000
vt 0.3454 0.6456 0.0000
vt -0.1545 0.7151 0.0000
vt 1.1846 0.7151 0.0000
vt 1.1846 0.9010 0.0000
vt -0.1545 0.9010 0.0000
vt -0.1604 0.7277 0.0000
vt 1.1788 0.7277 0.0000
vt 1.1788 0.9136 0.0000
vt -0.1604 0.9136 0.0000
vt 0.8184 0.4187 0.0000
vt 0.9297 0.4290 0.0000
vt 0.9257 0.4817 0.0000
vt 0.8144 0.4714 0.0000
vt 1.1066 0.6477 0.0000
vt 1.1066 0.6797 0.0000
vt 0.4808 0.6797 0.0000
vt 0.4808 0.6477 0.0000
vt 0.0224 0.7211 0.0000
vt 0.9962 0.7211 0.0000
vt 0.9962 0.9148 0.0000
vt 0.0224 0.9148 0.0000
vt 2.5648 -1.9356 0.0000
vt 1.8820 -1.9356 0.0000
vt 2.1845 -1.0799 0.0000
vt 2.2623 -1.0799 0.0000
vt 0.0224 0.7177 0.0000
vt 0.9962 0.7177 0.0000
vt 0.9962 0.9115 0.0000
vt 0.0224 0.9115 0.0000
vt 0.1796 0.4187 0.0000
vt 0.3110 0.4286 0.0000
vt 0.3060 0.4828 0.0000
vt 0.1745 0.4729 0.0000
vt 1.1332 0.6412 0.0000
vt 1.1332 0.6759 0.0000
vt 0.4318 0.6759 0.0000
vt 0.4318 0.6412 0.0000
vt 0.9820 0.9254 0.0000
vt 0.0456 0.9254 0.0000
vt 0.0456 0.7450 0.0000
vt 0.9820 0.7450 0.0000
vt 0.0985 0.7189 0.0000
vt 0.9412 0.7189 0.0000
vt 0.9412 0.8812 0.0000
vt 0.0985 0.8812 0.0000
vt 0.1796 0.5109 0.0000
vt 0.3110 0.5207 0.0000
vt 0.3060 0.5749 0.0000
vt 0.1745 0.5651 0.0000
vt 1.1406 0.6357 0.0000
vt 1.1406 0.6704 0.0000
vt 0.4392 0.6704 0.0000
vt 0.4392 0.6357 0.0000
vt 0.9712 0.9385 0.0000
vt 0.0347 0.9385 0.0000
vt 0.0347 0.7582 0.0000
vt 0.9712 0.7582 0.0000
vt 0.0907 0.7326 0.0000
vt 0.9333 0.7326 0.0000
vt 0.9333 0.8949 0.0000
vt 0.0907 0.8949 0.0000
vt 0.0150 0.4187 0.0000
vt 0.1465 0.4286 0.0000
vt 0.1414 0.4828 0.0000
vt 0.0100 0.4729 0.0000
vt 1.1555 0.6377 0.0000
vt 1.1555 0.6724 0.0000
vt 0.4541 0.6724 0.0000
vt 0.4541 0.6377 0.0000
vt 0.9820 0.9084 0.0000
vt 0.0456 0.9084 0.0000
vt 0.0456 0.7280 0.0000
vt 0.9820 0.7280 0.0000
vt 0.0907 0.7385 0.0000
vt 0.9333 0.7385 0.0000
vt 0.9333 0.9008 0.0000
vt 0.0907 0.9008 0.0000
vt 0.0150 0.5109 0.0000
vt 0.1465 0.5207 0.0000
vt 0.1414 0.5749 0.0000
vt 0.0100 0.5651 0.0000
vt 1.1406 0.6322 0.0000
vt 1.1406 0.6669 0.0000
vt 0.4392 0.6669 0.0000
vt 0.4392 0.6322 0.0000
vt 0.9712 0.9215 0.0000
vt 0.0347 0.9215 0.0000
vt 0.0347 0.7412 0.0000
vt 0.9712 0.7412 0.0000
vt 0.0907 0.7286 0.0000
vt 0.9333 0.7286 0.0000
vt 0.9333 0.8909 0.0000
vt 0.0907 0.8909 0.0000
vt 0.0150 0.6030 0.0000
vt 0.1465 0.6129 0.0000
vt 0.1414 0.6671 0.0000
vt 0.0100 0.6572 0.0000
vt 1.1481 0.6268 0.0000
vt 1.1481 0.6615 0.0000
vt 0.4467 0.6615 0.0000
vt 0.4467 0.6268 0.0000
vt 0.9712 0.9239 0.0000
vt 0.0347 0.9239 0.0000
vt 0.0347 0.7435 0.0000
vt 0.9712 0.7435 0.0000
vt 0.0985 0.7344 0.0000
vt 0.9412 0.7344 0.0000
vt 0.9412 0.8967 0.0000
vt 0.0985 0.8967 0.0000
vt 0.3441 0.4187 0.0000
vt 0.4755 0.4286 0.0000
vt 0.4705 0.4828 0.0000
vt 0.3391 0.4729 0.0000
vt 1.1555 0.6361 0.0000
vt 1.1555 0.6709 0.0000
vt 0.4541 0.6709 0.0000
vt 0.4541 0.6361 0.0000
vt 0.9820 0.9262 0.0000
vt 0.0456 0.9262 0.0000
vt 0.0456 0.7459 0.0000
vt 0.9820 0.7459 0.0000
vt 0.0828 0.7246 0.0000
vt 0.9255 0.7246 0.0000
vt 0.9255 0.8868 0.0000
vt 0.0828 0.8868 0.0000
vt 0.0150 0.6951 0.0000
vt 0.1465 0.7050 0.0000
vt 0.1414 0.7592 0.0000
vt 0.0100 0.7493 0.0000
vt 0.9604 0.9394 0.0000
vt 0.0239 0.9394 0.0000
vt 0.0239 0.7590 0.0000
vt 0.9604 0.7590 0.0000
vt 0.0828 0.7619 0.0000
vt 0.9255 0.7619 0.0000
vt 0.9255 0.9241 0.0000
vt 0.0828 0.9241 0.0000
vt 0.0326 0.6949 0.0000
vt 0.4902 0.7021 0.0000
vt 0.4902 0.7361 0.0000
vt 0.0327 0.7289 0.0000
vt 1.6096 0.6418 0.0000
vt 1.6096 0.6890 0.0000
vt -0.3681 0.6890 0.0000
vt -0.3681 0.6418 0.0000
vt -0.8426 0.5350 0.0000
vt 1.1313 0.5350 0.0000
vt 1.1313 0.6487 0.0000
vt -0.8426 0.6487 0.0000
vt -0.8480 0.5371 0.0000
vt 1.1258 0.5371 0.0000
vt 1.1258 0.6508 0.0000
vt -0.8480 0.6508 0.0000
vt 0.8363 0.5109 0.0000
vt 0.9108 0.5164 0.0000
vt 0.9067 0.5599 0.0000
vt 0.8323 0.5544 0.0000
vt 0.9846 0.6369 0.0000
vt 0.9846 0.6648 0.0000
vt 0.5873 0.6648 0.0000
vt 0.5873 0.6369 0.0000
vt 0.0450 0.6825 0.0000
vt 0.9840 0.6825 0.0000
vt 0.9840 0.9387 0.0000
vt 0.0450 0.9387 0.0000
vt 0.0341 0.6856 0.0000
vt 0.9732 0.6856 0.0000
vt 0.9732 0.9418 0.0000
vt 0.0341 0.9418 0.0000
vt 0.9144 0.1637 0.0000
vt 0.9889 0.1693 0.0000
vt 0.9856 0.2050 0.0000
vt 0.9111 0.1994 0.0000
vt 0.9365 0.6364 0.0000
vt 0.9365 0.6593 0.0000
vt 0.5392 0.6593 0.0000
vt 0.5392 0.6364 0.0000
vt 0.0563 0.6843 0.0000
vt 0.9954 0.6843 0.0000
vt 0.9954 0.8946 0.0000
vt 0.0563 0.8946 0.0000
vt 0.0455 0.6908 0.0000
vt 0.9845 0.6908 0.0000
vt 0.9845 0.9011 0.0000
vt 0.0455 0.9011 0.0000
vt 0.8641 0.8184 0.0000
vt 0.9312 0.8235 0.0000
vt 0.9289 0.8481 0.0000
vt 0.8618 0.8431 0.0000
vt 0.9135 0.6411 0.0000
vt 0.9135 0.6569 0.0000
vt 0.5553 0.6569 0.0000
vt 0.5553 0.6411 0.0000
vt 0.1112 0.7231 0.0000
vt 0.9577 0.7231 0.0000
vt 0.9577 0.8682 0.0000
vt 0.1112 0.8682 0.0000
vt 0.1112 0.7250 0.0000
vt 0.9577 0.7250 0.0000
vt 0.9577 0.8701 0.0000
vt 0.1112 0.8701 0.0000
vt 0.6023 0.7855 0.0000
vt 0.1185 0.7492 0.0000
vt 0.1237 0.6926 0.0000
vt 0.6075 0.7289 0.0000
vt -0.8911 0.6694 0.0000
vt -0.8911 0.6331 0.0000
vt 1.6902 0.6331 0.0000
vt 1.6902 0.6694 0.0000
vt -0.8976 0.7491 0.0000
vt 2.1544 0.7491 0.0000
vt 2.1544 0.9159 0.0000
vt -0.8976 0.9159 0.0000
vt -0.8976 0.7481 0.0000
vt 2.1544 0.7481 0.0000
vt 2.1544 0.9150 0.0000
vt -0.8976 0.9150 0.0000
# 308 texture coords

g Box035
usemtl 08___Default
f 1/1/1 2/2/1 3/3/1 
f 3/3/1 4/4/1 1/1/1 
f 5/5/2 6/6/2 7/7/2 
f 7/7/2 8/8/2 5/5/2 
f 1/9/3 4/10/3 6/11/3 
f 6/11/3 5/12/3 1/9/3 
f 4/13/4 3/14/4 7/15/4 
f 7/15/4 6/16/4 4/13/4 
f 3/9/5 2/10/5 8/11/5 
f 8/11/5 7/12/5 3/9/5 
f 2/17/6 1/18/6 5/19/6 
f 5/19/6 8/20/6 2/17/6 
f 9/21/1 10/22/1 11/23/1 
f 11/23/1 12/24/1 9/21/1 
f 13/25/2 14/26/2 15/27/2 
f 15/27/2 16/28/2 13/25/2 
f 9/9/3 12/10/3 14/11/3 
f 14/11/3 13/12/3 9/9/3 
f 12/29/4 11/30/4 15/31/4 
f 15/31/4 14/32/4 12/29/4 
f 11/9/5 10/10/5 16/11/5 
f 16/11/5 15/12/5 11/9/5 
f 10/33/6 9/34/6 13/35/6 
f 13/35/6 16/36/6 10/33/6 
f 17/37/1 18/38/1 19/39/1 
f 19/39/1 20/40/1 17/37/1 
f 21/41/2 22/42/2 23/43/2 
f 23/43/2 24/44/2 21/41/2 
f 17/9/3 20/10/3 22/11/3 
f 22/11/3 21/12/3 17/9/3 
f 20/45/4 19/46/4 23/47/4 
f 23/47/4 22/48/4 20/45/4 
f 19/9/5 18/10/5 24/11/5 
f 24/11/5 23/12/5 19/9/5 
f 18/49/6 17/50/6 21/51/6 
f 21/51/6 24/52/6 18/49/6 
f 25/53/1 26/54/1 27/55/1 
f 27/55/1 28/56/1 25/53/1 
f 29/57/2 30/58/2 31/59/2 
f 31/59/2 32/60/2 29/57/2 
f 25/9/3 28/10/3 30/11/3 
f 30/11/3 29/12/3 25/9/3 
f 28/61/4 27/62/4 31/63/4 
f 31/63/4 30/64/4 28/61/4 
f 27/9/5 26/10/5 32/11/5 
f 32/11/5 31/12/5 27/9/5 
f 26/65/6 25/66/6 29/67/6 
f 29/67/6 32/68/6 26/65/6 
f 33/69/1 34/70/1 35/71/1 
f 35/71/1 36/72/1 33/69/1 
f 37/73/2 38/74/2 39/75/2 
f 39/75/2 40/76/2 37/73/2 
f 33/9/3 36/10/3 38/11/3 
f 38/11/3 37/12/3 33/9/3 
f 36/77/4 35/78/4 39/79/4 
f 39/79/4 38/80/4 36/77/4 
f 35/9/5 34/10/5 40/11/5 
f 40/11/5 39/12/5 35/9/5 
f 34/81/6 33/82/6 37/83/6 
f 37/83/6 40/84/6 34/81/6 
f 41/85/1 42/86/1 43/87/1 
f 43/87/1 44/88/1 41/85/1 
f 45/89/2 46/90/2 47/91/2 
f 47/91/2 48/92/2 45/89/2 
f 41/9/7 44/10/7 46/11/8 
f 46/11/8 45/12/8 41/9/7 
f 44/93/9 43/94/9 47/95/9 
f 47/95/9 46/96/9 44/93/9 
f 43/9/10 42/10/10 48/11/10 
f 48/11/10 47/12/10 43/9/10 
f 42/97/11 41/98/11 45/99/11 
f 45/99/11 48/100/11 42/97/11 
f 49/101/1 50/102/1 51/103/1 
f 51/103/1 52/104/1 49/101/1 
f 53/105/2 54/106/2 55/107/2 
f 55/107/2 56/108/2 53/105/2 
f 49/9/8 52/10/7 54/11/8 
f 54/11/8 53/12/8 49/9/8 
f 52/109/9 51/110/9 55/111/9 
f 55/111/9 54/112/9 52/109/9 
f 51/113/12 50/114/10 56/115/12 
f 56/115/12 55/116/12 51/113/12 
f 50/117/11 49/118/11 53/119/11 
f 53/119/11 56/120/11 50/117/11 
f 57/121/1 58/122/1 59/123/1 
f 59/123/1 60/124/1 57/121/1 
f 61/125/2 62/126/2 63/127/2 
f 63/127/2 64/128/2 61/125/2 
f 57/9/13 60/10/13 62/11/14 
f 62/11/14 61/12/14 57/9/13 
f 60/129/15 59/130/15 63/131/15 
f 63/131/15 62/132/15 60/129/15 
f 59/9/16 58/10/16 64/11/17 
f 64/11/17 63/12/17 59/9/16 
f 58/133/18 57/134/18 61/135/18 
f 61/135/18 64/136/18 58/133/18 
f 65/137/1 66/138/1 67/139/1 
f 67/139/1 68/140/1 65/137/1 
f 69/141/2 70/142/2 71/143/2 
f 71/143/2 72/144/2 69/141/2 
f 65/9/13 68/10/13 70/11/14 
f 70/11/14 69/12/14 65/9/13 
f 68/145/15 67/146/15 71/147/15 
f 71/147/15 70/148/15 68/145/15 
f 67/9/16 66/10/16 72/11/17 
f 72/11/17 71/12/17 67/9/16 
f 66/149/18 65/150/18 69/151/18 
f 69/151/18 72/152/18 66/149/18 
f 73/153/1 74/154/1 75/155/1 
f 75/155/1 76/156/1 73/153/1 
f 77/157/2 78/158/2 79/159/2 
f 79/159/2 80/160/2 77/157/2 
f 73/9/13 76/10/13 78/11/14 
f 78/11/14 77/12/14 73/9/13 
f 76/161/15 75/162/15 79/163/15 
f 79/163/15 78/164/15 76/161/15 
f 75/9/16 74/10/16 80/11/17 
f 80/11/17 79/12/17 75/9/16 
f 74/165/18 73/166/18 77/167/18 
f 77/167/18 80/168/18 74/165/18 
f 81/169/1 82/170/1 83/171/1 
f 83/171/1 84/172/1 81/169/1 
f 85/173/2 86/174/2 87/175/2 
f 87/175/2 88/176/2 85/173/2 
f 81/9/13 84/10/13 86/11/14 
f 86/11/14 85/12/14 81/9/13 
f 84/177/15 83/178/15 87/179/15 
f 87/179/15 86/180/15 84/177/15 
f 83/9/16 82/10/16 88/11/17 
f 88/11/17 87/12/17 83/9/16 
f 82/181/18 81/182/18 85/183/18 
f 85/183/18 88/184/18 82/181/18 
f 89/185/1 90/186/1 91/187/1 
f 91/187/1 92/188/1 89/185/1 
f 93/189/2 94/190/2 95/191/2 
f 95/191/2 96/192/2 93/189/2 
f 89/9/13 92/10/13 94/11/14 
f 94/11/14 93/12/14 89/9/13 
f 92/193/15 91/194/15 95/195/15 
f 95/195/15 94/196/15 92/193/15 
f 91/9/16 90/10/16 96/11/17 
f 96/11/17 95/12/17 91/9/16 
f 90/197/18 89/198/18 93/199/18 
f 93/199/18 96/200/18 90/197/18 
f 97/201/1 98/202/1 99/203/1 
f 99/203/1 100/204/1 97/201/1 
f 101/205/2 102/206/2 103/207/2 
f 103/207/2 104/208/2 101/205/2 
f 97/9/13 100/10/13 102/11/14 
f 102/11/14 101/12/14 97/9/13 
f 100/209/15 99/210/15 103/211/15 
f 103/211/15 102/212/15 100/209/15 
f 99/9/17 98/10/17 104/11/16 
f 104/11/16 103/12/16 99/9/17 
f 98/213/18 97/214/18 101/215/18 
f 101/215/18 104/216/18 98/213/18 
f 105/217/1 106/218/1 107/219/1 
f 107/219/1 108/220/1 105/217/1 
f 109/205/2 110/206/2 111/207/2 
f 111/207/2 112/208/2 109/205/2 
f 105/9/13 108/10/13 110/11/14 
f 110/11/14 109/12/14 105/9/13 
f 108/221/15 107/222/15 111/223/15 
f 111/223/15 110/224/15 108/221/15 
f 107/9/17 106/10/17 112/11/16 
f 112/11/16 111/12/16 107/9/17 
f 106/225/18 105/226/18 109/227/18 
f 109/227/18 112/228/18 106/225/18 
f 113/229/1 114/230/1 115/231/1 
f 115/231/1 116/232/1 113/229/1 
f 117/233/2 118/234/2 119/235/2 
f 119/235/2 120/236/2 117/233/2 
f 113/9/10 116/10/10 118/11/10 
f 118/11/10 117/12/10 113/9/10 
f 116/237/11 115/238/11 119/239/11 
f 119/239/11 118/240/11 116/237/11 
f 115/9/8 114/10/7 120/11/8 
f 120/11/8 119/12/8 115/9/8 
f 114/241/9 113/242/9 117/243/9 
f 117/243/9 120/244/9 114/241/9 
f 121/245/1 122/246/1 123/247/1 
f 123/247/1 124/248/1 121/245/1 
f 125/249/2 126/250/2 127/251/2 
f 127/251/2 128/252/2 125/249/2 
f 121/9/14 124/10/13 126/11/14 
f 126/11/14 125/12/14 121/9/14 
f 124/253/19 123/254/19 127/255/19 
f 127/255/19 126/256/19 124/253/19 
f 123/9/16 122/10/17 128/11/16 
f 128/11/16 127/12/16 123/9/16 
f 122/257/20 121/258/20 125/259/20 
f 125/259/20 128/260/20 122/257/20 
f 129/261/1 130/262/1 131/263/1 
f 131/263/1 132/264/1 129/261/1 
f 133/265/2 134/266/2 135/267/2 
f 135/267/2 136/268/2 133/265/2 
f 129/9/14 132/10/14 134/11/14 
f 134/11/14 133/12/14 129/9/14 
f 132/269/21 131/270/21 135/271/21 
f 135/271/21 134/272/21 132/269/21 
f 131/9/17 130/10/17 136/11/17 
f 136/11/17 135/12/17 131/9/17 
f 130/273/22 129/274/22 133/275/22 
f 133/275/22 136/276/22 130/273/22 
f 137/277/1 138/278/1 139/279/1 
f 139/279/1 140/280/1 137/277/1 
f 141/281/2 142/282/2 143/283/2 
f 143/283/2 144/284/2 141/281/2 
f 137/9/14 140/10/14 142/11/13 
f 142/11/13 141/12/13 137/9/14 
f 140/285/23 139/286/23 143/287/23 
f 143/287/23 142/288/23 140/285/23 
f 139/9/17 138/10/17 144/11/17 
f 144/11/17 143/12/17 139/9/17 
f 138/289/24 137/290/24 141/291/24 
f 141/291/24 144/292/24 138/289/24 
f 145/293/1 146/294/1 147/295/1 
f 147/295/1 148/296/1 145/293/1 
f 149/297/2 150/298/2 151/299/2 
f 151/299/2 152/300/2 149/297/2 
f 145/9/17 148/10/17 150/11/16 
f 150/11/16 149/12/16 145/9/17 
f 148/301/25 147/302/25 151/303/25 
f 151/303/25 150/304/25 148/301/25 
f 147/9/13 146/10/13 152/11/13 
f 152/11/13 151/12/13 147/9/13 
f 146/305/26 145/306/26 149/307/26 
f 149/307/26 152/308/26 146/305/26 
# 228 faces

