# 3ds Max Wavefront OBJ Exporter v0.97b - (c)2007 guruware
# File Created: 07.01.2015 08:26:16

#
# object Box199
#

v  -8.0189 0.0000 4.2243
v  -8.0189 0.0000 -4.2243
v  8.0189 0.0000 -4.2243
v  8.0189 0.0000 4.2243
v  -8.0189 6.1489 4.2243
v  8.0189 6.1489 4.2243
v  8.0189 9.6836 -4.2243
v  -8.0189 9.6836 -4.2243
# 8 vertices

vn 0.0000 -1.0000 -0.0000
vn 0.0000 0.9225 0.3860
vn 0.0000 0.0000 1.0000
vn 1.0000 0.0000 -0.0000
vn 0.0000 0.0000 -1.0000
vn -1.0000 0.0000 -0.0000
# 6 vertex normals

vt 0.3169 0.0100 0.0000
vt 0.5708 0.0100 0.0000
vt 0.5708 0.4921 0.0000
vt 0.3169 0.4921 0.0000
vt 0.7352 0.9437 0.0000
vt 0.2531 0.9437 0.0000
vt 0.2531 0.6898 0.0000
vt 0.7352 0.6898 0.0000
vt 0.0281 0.1864 0.0000
vt 0.8757 0.1864 0.0000
vt 0.8757 0.5114 0.0000
vt 0.0281 0.5114 0.0000
vt 0.5265 0.1761 0.0000
vt 0.9753 0.1761 0.0000
vt 0.9753 0.6905 0.0000
vt 0.5265 0.5027 0.0000
vt 0.1676 0.2094 0.0000
vt 0.9120 0.2094 0.0000
vt 0.9119 0.6588 0.0000
vt 0.1676 0.6588 0.0000
vt 0.7683 0.2966 0.0000
vt 0.2837 0.2966 0.0000
vt 0.2837 -0.0031 0.0000
vt 0.7683 -0.1753 0.0000
# 24 texture coords

g Box199
f 1/1/1 2/2/1 3/3/1 
f 3/3/1 4/4/1 1/1/1 
f 5/5/2 6/6/2 7/7/2 
f 7/7/2 8/8/2 5/5/2 
f 1/9/3 4/10/3 6/11/3 
f 6/11/3 5/12/3 1/9/3 
f 4/13/4 3/14/4 7/15/4 
f 7/15/4 6/16/4 4/13/4 
f 3/17/5 2/18/5 8/19/5 
f 8/19/5 7/20/5 3/17/5 
f 2/21/6 1/22/6 5/23/6 
f 5/23/6 8/24/6 2/21/6 
# 12 faces

