# 3ds Max Wavefront OBJ Exporter v0.97b - (c)2007 guruware
# File Created: 07.01.2015 07:02:59

#
# object Box192
#

v  0.6941 8.4255 5.7595
v  0.0180 8.4255 5.7595
v  0.0180 8.4255 4.3915
v  0.6941 8.4255 4.3915
v  0.6941 9.4422 5.7595
v  0.6941 9.4422 4.3915
v  0.0180 9.4422 4.3915
v  0.0180 9.4422 5.7595
# 8 vertices

vn 0.0000 -1.0000 -0.0000
vn 0.0000 1.0000 -0.0000
vn 1.0000 0.0000 -0.0000
vn -0.0000 0.0000 -1.0000
vn -1.0000 0.0000 0.0000
vn 0.0000 0.0000 1.0000
# 6 vertex normals

vt 1.2417 0.2599 0.9541
vt 1.2417 0.3656 0.9541
vt 0.9001 0.3656 0.9541
vt 0.9001 0.2599 0.9541
vt -0.2417 0.2599 1.1866
vt 0.0999 0.2599 1.1866
vt 0.0999 0.3656 1.1866
vt -0.2417 0.3656 1.1866
vt -0.2417 0.9541 0.2599
vt 0.0999 0.9541 0.2599
vt 0.0999 1.1866 0.2599
vt -0.2417 1.1866 0.2599
vt 0.2599 0.9541 0.0999
vt 0.3656 0.9541 0.0999
vt 0.3656 1.1866 0.0999
vt 0.2599 1.1866 0.0999
vt 0.9001 0.9541 0.3656
vt 1.2417 0.9541 0.3656
vt 1.2417 1.1866 0.3656
vt 0.9001 1.1866 0.3656
vt 0.6344 0.9541 -0.2417
vt 0.7401 0.9541 -0.2417
vt 0.7401 1.1866 -0.2417
vt 0.6344 1.1866 -0.2417
# 24 texture coords

g Box192
f 1/1/1 2/2/1 3/3/1 
f 3/3/1 4/4/1 1/1/1 
f 5/5/2 6/6/2 7/7/2 
f 7/7/2 8/8/2 5/5/2 
f 1/9/3 4/10/3 6/11/3 
f 6/11/3 5/12/3 1/9/3 
f 4/13/4 3/14/4 7/15/4 
f 7/15/4 6/16/4 4/13/4 
f 3/17/5 2/18/5 8/19/5 
f 8/19/5 7/20/5 3/17/5 
f 2/21/6 1/22/6 5/23/6 
f 5/23/6 8/24/6 2/21/6 
# 12 faces

#
# object Box204
#

v  0.6941 8.4255 7.7925
v  0.0180 8.4255 7.7925
v  0.0180 8.4255 6.4245
v  0.6941 8.4255 6.4245
v  0.6941 9.4422 7.7925
v  0.6941 9.4422 6.4245
v  0.0180 9.4422 6.4245
v  0.0180 9.4422 7.7925
# 8 vertices

vn 0.0000 -1.0000 -0.0000
vn 0.0000 1.0000 -0.0000
vn 1.0000 0.0000 -0.0000
vn -0.0000 0.0000 -1.0000
vn -1.0000 0.0000 0.0000
vn 0.0000 0.0000 1.0000
# 6 vertex normals

vt 1.7493 0.2599 0.9541
vt 1.7493 0.3656 0.9541
vt 1.4078 0.3656 0.9541
vt 1.4078 0.2599 0.9541
vt -0.7493 0.2599 1.1866
vt -0.4078 0.2599 1.1866
vt -0.4078 0.3656 1.1866
vt -0.7493 0.3656 1.1866
vt -0.7493 0.9541 0.2599
vt -0.4078 0.9541 0.2599
vt -0.4078 1.1866 0.2599
vt -0.7493 1.1866 0.2599
vt 0.2599 0.9541 -0.4078
vt 0.3656 0.9541 -0.4078
vt 0.3656 1.1866 -0.4078
vt 0.2599 1.1866 -0.4078
vt 1.4078 0.9541 0.3656
vt 1.7493 0.9541 0.3656
vt 1.7493 1.1866 0.3656
vt 1.4078 1.1866 0.3656
vt 0.6344 0.9541 -0.7493
vt 0.7401 0.9541 -0.7493
vt 0.7401 1.1866 -0.7493
vt 0.6344 1.1866 -0.7493
# 24 texture coords

g Box204
f 9/25/7 10/26/7 11/27/7 
f 11/27/7 12/28/7 9/25/7 
f 13/29/8 14/30/8 15/31/8 
f 15/31/8 16/32/8 13/29/8 
f 9/33/9 12/34/9 14/35/9 
f 14/35/9 13/36/9 9/33/9 
f 12/37/10 11/38/10 15/39/10 
f 15/39/10 14/40/10 12/37/10 
f 11/41/11 10/42/11 16/43/11 
f 16/43/11 15/44/11 11/41/11 
f 10/45/12 9/46/12 13/47/12 
f 13/47/12 16/48/12 10/45/12 
# 12 faces

#
# object Box193
#

v  0.6941 8.4255 3.7265
v  0.0180 8.4255 3.7265
v  0.0180 8.4255 2.3585
v  0.6941 8.4255 2.3585
v  0.6941 9.4422 3.7265
v  0.6941 9.4422 2.3585
v  0.0180 9.4422 2.3585
v  0.0180 9.4422 3.7265
# 8 vertices

vn 0.0000 -1.0000 -0.0000
vn 0.0000 1.0000 -0.0000
vn 1.0000 0.0000 -0.0000
vn -0.0000 0.0000 -1.0000
vn -1.0000 0.0000 0.0000
vn 0.0000 0.0000 1.0000
# 6 vertex normals

vt 0.7341 0.2599 0.9541
vt 0.7341 0.3656 0.9541
vt 0.3925 0.3656 0.9541
vt 0.3925 0.2599 0.9541
vt 0.2659 0.2599 1.1866
vt 0.6075 0.2599 1.1866
vt 0.6075 0.3656 1.1866
vt 0.2659 0.3656 1.1866
vt 0.2659 0.9541 0.2599
vt 0.6075 0.9541 0.2599
vt 0.6075 1.1866 0.2599
vt 0.2659 1.1866 0.2599
vt 0.2599 0.9541 0.6075
vt 0.3656 0.9541 0.6075
vt 0.3656 1.1866 0.6075
vt 0.2599 1.1866 0.6075
vt 0.3925 0.9541 0.3656
vt 0.7341 0.9541 0.3656
vt 0.7341 1.1866 0.3656
vt 0.3925 1.1866 0.3656
vt 0.6344 0.9541 0.2659
vt 0.7401 0.9541 0.2659
vt 0.7401 1.1866 0.2659
vt 0.6344 1.1866 0.2659
# 24 texture coords

g Box193
f 17/49/13 18/50/13 19/51/13 
f 19/51/13 20/52/13 17/49/13 
f 21/53/14 22/54/14 23/55/14 
f 23/55/14 24/56/14 21/53/14 
f 17/57/15 20/58/15 22/59/15 
f 22/59/15 21/60/15 17/57/15 
f 20/61/16 19/62/16 23/63/16 
f 23/63/16 22/64/16 20/61/16 
f 19/65/17 18/66/17 24/67/17 
f 24/67/17 23/68/17 19/65/17 
f 18/69/18 17/70/18 21/71/18 
f 21/71/18 24/72/18 18/69/18 
# 12 faces

#
# object Box194
#

v  0.6941 8.4255 1.6935
v  0.0180 8.4255 1.6935
v  0.0180 8.4255 0.3255
v  0.6941 8.4255 0.3255
v  0.6941 9.4422 1.6935
v  0.6941 9.4422 0.3255
v  0.0180 9.4422 0.3255
v  0.0180 9.4422 1.6935
# 8 vertices

vn 0.0000 -1.0000 -0.0000
vn 0.0000 1.0000 -0.0000
vn 1.0000 0.0000 -0.0000
vn -0.0000 0.0000 -1.0000
vn -1.0000 0.0000 0.0000
vn 0.0000 0.0000 1.0000
# 6 vertex normals

vt 0.2265 0.2599 0.9541
vt 0.2265 0.3656 0.9541
vt -0.1151 0.3656 0.9541
vt -0.1151 0.2599 0.9541
vt 0.7735 0.2599 1.1866
vt 1.1151 0.2599 1.1866
vt 1.1151 0.3656 1.1866
vt 0.7735 0.3656 1.1866
vt 0.7735 0.9541 0.2599
vt 1.1151 0.9541 0.2599
vt 1.1151 1.1866 0.2599
vt 0.7735 1.1866 0.2599
vt 0.2599 0.9541 1.1151
vt 0.3656 0.9541 1.1151
vt 0.3656 1.1866 1.1151
vt 0.2599 1.1866 1.1151
vt -0.1151 0.9541 0.3656
vt 0.2265 0.9541 0.3656
vt 0.2265 1.1866 0.3656
vt -0.1151 1.1866 0.3656
vt 0.6344 0.9541 0.7735
vt 0.7401 0.9541 0.7735
vt 0.7401 1.1866 0.7735
vt 0.6344 1.1866 0.7735
# 24 texture coords

g Box194
f 25/73/19 26/74/19 27/75/19 
f 27/75/19 28/76/19 25/73/19 
f 29/77/20 30/78/20 31/79/20 
f 31/79/20 32/80/20 29/77/20 
f 25/81/21 28/82/21 30/83/21 
f 30/83/21 29/84/21 25/81/21 
f 28/85/22 27/86/22 31/87/22 
f 31/87/22 30/88/22 28/85/22 
f 27/89/23 26/90/23 32/91/23 
f 32/91/23 31/92/23 27/89/23 
f 26/93/24 25/94/24 29/95/24 
f 29/95/24 32/96/24 26/93/24 
# 12 faces

#
# object Box195
#

v  0.6941 8.4255 -0.3395
v  0.0180 8.4255 -0.3395
v  0.0180 8.4255 -1.7075
v  0.6941 8.4255 -1.7075
v  0.6941 9.4422 -0.3395
v  0.6941 9.4422 -1.7075
v  0.0180 9.4422 -1.7075
v  0.0180 9.4422 -0.3395
# 8 vertices

vn 0.0000 -1.0000 -0.0000
vn 0.0000 1.0000 -0.0000
vn 1.0000 0.0000 -0.0000
vn -0.0000 0.0000 -1.0000
vn -1.0000 0.0000 0.0000
vn 0.0000 0.0000 1.0000
# 6 vertex normals

vt -0.2812 0.2599 0.9541
vt -0.2812 0.3656 0.9541
vt -0.6227 0.3656 0.9541
vt -0.6227 0.2599 0.9541
vt 1.2812 0.2599 1.1866
vt 1.6227 0.2599 1.1866
vt 1.6227 0.3656 1.1866
vt 1.2812 0.3656 1.1866
vt 1.2812 0.9541 0.2599
vt 1.6227 0.9541 0.2599
vt 1.6227 1.1866 0.2599
vt 1.2812 1.1866 0.2599
vt 0.2599 0.9541 1.6227
vt 0.3656 0.9541 1.6227
vt 0.3656 1.1866 1.6227
vt 0.2599 1.1866 1.6227
vt -0.6227 0.9541 0.3656
vt -0.2812 0.9541 0.3656
vt -0.2812 1.1866 0.3656
vt -0.6227 1.1866 0.3656
vt 0.6344 0.9541 1.2812
vt 0.7401 0.9541 1.2812
vt 0.7401 1.1866 1.2812
vt 0.6344 1.1866 1.2812
# 24 texture coords

g Box195
f 33/97/25 34/98/25 35/99/25 
f 35/99/25 36/100/25 33/97/25 
f 37/101/26 38/102/26 39/103/26 
f 39/103/26 40/104/26 37/101/26 
f 33/105/27 36/106/27 38/107/27 
f 38/107/27 37/108/27 33/105/27 
f 36/109/28 35/110/28 39/111/28 
f 39/111/28 38/112/28 36/109/28 
f 35/113/29 34/114/29 40/115/29 
f 40/115/29 39/116/29 35/113/29 
f 34/117/30 33/118/30 37/119/30 
f 37/119/30 40/120/30 34/117/30 
# 12 faces

#
# object Box196
#

v  0.6941 8.4255 -2.3725
v  0.0180 8.4255 -2.3725
v  0.0180 8.4255 -3.7405
v  0.6941 8.4255 -3.7405
v  0.6941 9.4422 -2.3725
v  0.6941 9.4422 -3.7405
v  0.0180 9.4422 -3.7405
v  0.0180 9.4422 -2.3725
# 8 vertices

vn 0.0000 -1.0000 -0.0000
vn 0.0000 1.0000 -0.0000
vn 1.0000 0.0000 -0.0000
vn -0.0000 0.0000 -1.0000
vn -1.0000 0.0000 0.0000
vn 0.0000 0.0000 1.0000
# 6 vertex normals

vt -0.7888 0.2599 0.9541
vt -0.7888 0.3656 0.9541
vt -1.1304 0.3656 0.9541
vt -1.1304 0.2599 0.9541
vt 1.7888 0.2599 1.1866
vt 2.1304 0.2599 1.1866
vt 2.1304 0.3656 1.1866
vt 1.7888 0.3656 1.1866
vt 1.7888 0.9541 0.2599
vt 2.1304 0.9541 0.2599
vt 2.1304 1.1866 0.2599
vt 1.7888 1.1866 0.2599
vt 0.2599 0.9541 2.1304
vt 0.3656 0.9541 2.1304
vt 0.3656 1.1866 2.1304
vt 0.2599 1.1866 2.1304
vt -1.1304 0.9541 0.3656
vt -0.7888 0.9541 0.3656
vt -0.7888 1.1866 0.3656
vt -1.1304 1.1866 0.3656
vt 0.6344 0.9541 1.7888
vt 0.7401 0.9541 1.7888
vt 0.7401 1.1866 1.7888
vt 0.6344 1.1866 1.7888
# 24 texture coords

g Box196
f 41/121/31 42/122/31 43/123/31 
f 43/123/31 44/124/31 41/121/31 
f 45/125/32 46/126/32 47/127/32 
f 47/127/32 48/128/32 45/125/32 
f 41/129/33 44/130/33 46/131/33 
f 46/131/33 45/132/33 41/129/33 
f 44/133/34 43/134/34 47/135/34 
f 47/135/34 46/136/34 44/133/34 
f 43/137/35 42/138/35 48/139/35 
f 48/139/35 47/140/35 43/137/35 
f 42/141/36 41/142/36 45/143/36 
f 45/143/36 48/144/36 42/141/36 
# 12 faces

#
# object Box197
#

v  0.6941 8.4255 -4.4055
v  0.0180 8.4255 -4.4055
v  0.0180 8.4255 -5.7735
v  0.6941 8.4255 -5.7735
v  0.6941 9.4422 -4.4055
v  0.6941 9.4422 -5.7735
v  0.0180 9.4422 -5.7735
v  0.0180 9.4422 -4.4055
# 8 vertices

vn 0.0000 -1.0000 -0.0000
vn 0.0000 1.0000 -0.0000
vn 1.0000 0.0000 -0.0000
vn -0.0000 0.0000 -1.0000
vn -1.0000 0.0000 0.0000
vn 0.0000 0.0000 1.0000
# 6 vertex normals

vt -1.2964 0.2599 0.9541
vt -1.2964 0.3656 0.9541
vt -1.6380 0.3656 0.9541
vt -1.6380 0.2599 0.9541
vt 2.2964 0.2599 1.1866
vt 2.6380 0.2599 1.1866
vt 2.6380 0.3656 1.1866
vt 2.2964 0.3656 1.1866
vt 2.2964 0.9541 0.2599
vt 2.6380 0.9541 0.2599
vt 2.6380 1.1866 0.2599
vt 2.2964 1.1866 0.2599
vt 0.2599 0.9541 2.6380
vt 0.3656 0.9541 2.6380
vt 0.3656 1.1866 2.6380
vt 0.2599 1.1866 2.6380
vt -1.6380 0.9541 0.3656
vt -1.2964 0.9541 0.3656
vt -1.2964 1.1866 0.3656
vt -1.6380 1.1866 0.3656
vt 0.6344 0.9541 2.2964
vt 0.7401 0.9541 2.2964
vt 0.7401 1.1866 2.2964
vt 0.6344 1.1866 2.2964
# 24 texture coords

g Box197
f 49/145/37 50/146/37 51/147/37 
f 51/147/37 52/148/37 49/145/37 
f 53/149/38 54/150/38 55/151/38 
f 55/151/38 56/152/38 53/149/38 
f 49/153/39 52/154/39 54/155/39 
f 54/155/39 53/156/39 49/153/39 
f 52/157/40 51/158/40 55/159/40 
f 55/159/40 54/160/40 52/157/40 
f 51/161/41 50/162/41 56/163/41 
f 56/163/41 55/164/41 51/161/41 
f 50/165/42 49/166/42 53/167/42 
f 53/167/42 56/168/42 50/165/42 
# 12 faces

#
# object Box190
#

v  0.6941 8.4255 -6.4385
v  0.0180 8.4255 -6.4385
v  0.0180 8.4255 -7.8065
v  0.6941 8.4255 -7.8065
v  0.6941 9.4422 -6.4385
v  0.6941 9.4422 -7.8065
v  0.0180 9.4422 -7.8065
v  0.0180 9.4422 -6.4385
# 8 vertices

vn 0.0000 -1.0000 -0.0000
vn 0.0000 1.0000 -0.0000
vn 1.0000 0.0000 -0.0000
vn -0.0000 0.0000 -1.0000
vn -1.0000 0.0000 0.0000
vn 0.0000 0.0000 1.0000
# 6 vertex normals

vt -1.8040 0.2599 0.9541
vt -1.8040 0.3656 0.9541
vt -2.1456 0.3656 0.9541
vt -2.1456 0.2599 0.9541
vt 2.8040 0.2599 1.1866
vt 3.1456 0.2599 1.1866
vt 3.1456 0.3656 1.1866
vt 2.8040 0.3656 1.1866
vt 2.8040 0.9541 0.2599
vt 3.1456 0.9541 0.2599
vt 3.1456 1.1866 0.2599
vt 2.8040 1.1866 0.2599
vt 0.2599 0.9541 3.1456
vt 0.3656 0.9541 3.1456
vt 0.3656 1.1866 3.1456
vt 0.2599 1.1866 3.1456
vt -2.1456 0.9541 0.3656
vt -1.8040 0.9541 0.3656
vt -1.8040 1.1866 0.3656
vt -2.1456 1.1866 0.3656
vt 0.6344 0.9541 2.8040
vt 0.7401 0.9541 2.8040
vt 0.7401 1.1866 2.8040
vt 0.6344 1.1866 2.8040
# 24 texture coords

g Box190
f 57/169/43 58/170/43 59/171/43 
f 59/171/43 60/172/43 57/169/43 
f 61/173/44 62/174/44 63/175/44 
f 63/175/44 64/176/44 61/173/44 
f 57/177/45 60/178/45 62/179/45 
f 62/179/45 61/180/45 57/177/45 
f 60/181/46 59/182/46 63/183/46 
f 63/183/46 62/184/46 60/181/46 
f 59/185/47 58/186/47 64/187/47 
f 64/187/47 63/188/47 59/185/47 
f 58/189/48 57/190/48 61/191/48 
f 61/191/48 64/192/48 58/189/48 
# 12 faces

#
# object Box189
#

v  0.7889 -0.3338 8.3585
v  -0.7889 -0.3338 8.3585
v  -0.7889 -0.3338 -8.3585
v  0.7889 -0.3338 -8.3585
v  0.7889 8.5492 8.3585
v  0.7889 8.5492 -8.3585
v  -0.7889 8.5492 -8.3585
v  -0.7889 8.5492 8.3585
# 8 vertices

vn 0.0000 -1.0000 -0.0000
vn 0.0000 1.0000 -0.0000
vn 1.0000 0.0000 -0.0000
vn -0.0000 0.0000 -1.0000
vn -1.0000 0.0000 0.0000
vn 0.0000 0.0000 1.0000
# 6 vertex normals

vt 1.8906 0.2546 -1.0492
vt 1.8906 0.7419 -1.0492
vt -2.2834 0.7419 -1.0492
vt -2.2834 0.2546 -1.0492
vt -0.8906 0.2546 0.9824
vt 3.2834 0.2546 0.9824
vt 3.2834 0.7419 0.9824
vt -0.8906 0.7419 0.9824
vt -0.8906 -1.0492 0.2546
vt 3.2834 -1.0492 0.2546
vt 3.2834 0.9824 0.2546
vt -0.8906 0.9824 0.2546
vt 0.2546 -1.0492 3.2834
vt 0.7419 -1.0492 3.2834
vt 0.7419 0.9824 3.2834
vt 0.2546 0.9824 3.2834
vt -2.2834 -1.0492 0.7419
vt 1.8906 -1.0492 0.7419
vt 1.8906 0.9824 0.7419
vt -2.2834 0.9824 0.7419
vt 0.2581 -1.0492 -0.8906
vt 0.7454 -1.0492 -0.8906
vt 0.7454 0.9824 -0.8906
vt 0.2581 0.9824 -0.8906
# 24 texture coords

g Box189
f 65/193/49 66/194/49 67/195/49 
f 67/195/49 68/196/49 65/193/49 
f 69/197/50 70/198/50 71/199/50 
f 71/199/50 72/200/50 69/197/50 
f 65/201/51 68/202/51 70/203/51 
f 70/203/51 69/204/51 65/201/51 
f 68/205/52 67/206/52 71/207/52 
f 71/207/52 70/208/52 68/205/52 
f 67/209/53 66/210/53 72/211/53 
f 72/211/53 71/212/53 67/209/53 
f 66/213/54 65/214/54 69/215/54 
f 69/215/54 72/216/54 66/213/54 
# 12 faces

