# 3ds Max Wavefront OBJ Exporter v0.97b - (c)2007 guruware
# File Created: 19.03.2014 20:03:20

mtllib walkway.mtl

#
# object Box025
#

v  -571.4883 83.4903 350.7775
v  -583.6442 83.4903 240.8323
v  -572.9099 83.4903 225.6159
v  -560.7540 83.4903 335.5612
v  -571.4883 97.9496 350.7775
v  -560.7540 97.9496 335.5612
v  -572.9099 97.9496 225.6159
v  -583.6442 97.9496 240.8323
v  -571.4883 62.9224 350.7775
v  -583.6442 62.9224 240.8323
v  -572.9099 62.9224 225.6159
v  -560.7540 62.9224 335.5612
v  -571.4883 77.3816 350.7775
v  -560.7540 77.3816 335.5612
v  -572.9099 77.3816 225.6159
v  -583.6442 77.3816 240.8323
v  -571.4883 42.3544 350.7775
v  -583.6442 42.3544 240.8323
v  -572.9099 42.3544 225.6159
v  -560.7540 42.3544 335.5612
v  -571.4883 56.8136 350.7775
v  -560.7540 56.8136 335.5612
v  -572.9099 56.8136 225.6159
v  -583.6442 56.8136 240.8323
# 24 vertices

vn 0.0000 -1.0000 -0.0000
vn 0.0000 1.0000 -0.0000
vn 0.1099 0.0000 0.9939
vn 0.5764 0.0000 -0.8171
vn -0.1099 0.0000 -0.9939
vn -0.5764 0.0000 0.8171
# 6 vertex normals

vt 0.5307 -0.0718 0.0000
vt 0.2929 -0.0718 0.0000
vt 0.2929 -0.2260 0.0000
vt 0.5307 -0.2260 0.0000
vt -0.1080 0.6526 0.0000
vt 0.0068 0.3245 0.0000
vt 0.9330 0.3245 0.0000
vt 0.8183 0.6526 0.0000
vt 0.0309 -0.2352 0.0000
vt 0.0309 -0.3894 0.0000
vt 0.2165 -0.3894 0.0000
vt 0.2165 -0.2352 0.0000
vt 0.0669 0.3288 0.0000
vt 0.9897 0.3288 0.0000
vt 0.9758 0.6536 0.0000
vt 0.0530 0.6536 0.0000
vt 0.8252 -0.6551 0.0000
vt 0.8252 -0.8093 0.0000
vt 1.0109 -0.8093 0.0000
vt 1.0109 -0.6551 0.0000
vt 0.0517 0.3160 0.0000
vt 0.9850 0.3165 0.0000
vt 0.9780 0.6619 0.0000
vt 0.0448 0.6619 0.0000
vt 0.5307 -0.4451 0.0000
vt 0.2929 -0.4451 0.0000
vt 0.2929 -0.5994 0.0000
vt 0.5307 -0.5994 0.0000
vt -0.1134 0.6589 0.0000
vt 0.0013 0.3199 0.0000
vt 0.9350 0.3199 0.0000
vt 0.8203 0.6589 0.0000
vt 0.8171 -0.8650 0.0000
vt 0.8171 -1.0193 0.0000
vt 1.0028 -1.0193 0.0000
vt 1.0028 -0.8650 0.0000
vt 0.0685 0.3299 0.0000
vt 0.9883 0.3299 0.0000
vt 0.9744 0.6547 0.0000
vt 0.0546 0.6547 0.0000
vt 0.5631 -0.0718 0.0000
vt 0.5631 -0.2260 0.0000
vt 0.7488 -0.2260 0.0000
vt 0.7488 -0.0718 0.0000
vt 0.0552 0.3210 0.0000
vt 0.9815 0.3210 0.0000
vt 0.9745 0.6632 0.0000
vt 0.0482 0.6632 0.0000
vt 0.8009 -0.4451 0.0000
vt 0.5631 -0.4451 0.0000
vt 0.5631 -0.5994 0.0000
vt 0.8009 -0.5994 0.0000
vt -0.1060 0.6562 0.0000
vt 0.0087 0.3212 0.0000
vt 0.9291 0.3212 0.0000
vt 0.8144 0.6562 0.0000
vt 0.0309 -0.0485 0.0000
vt 0.0309 -0.2027 0.0000
vt 0.2165 -0.2027 0.0000
vt 0.2165 -0.0485 0.0000
vt 0.0669 0.3310 0.0000
vt 0.9863 0.3310 0.0000
vt 0.9723 0.6522 0.0000
vt 0.0530 0.6522 0.0000
vt 0.7812 -0.0718 0.0000
vt 0.7812 -0.2260 0.0000
vt 0.9668 -0.2260 0.0000
vt 0.9668 -0.0718 0.0000
vt 0.0526 0.3210 0.0000
vt 0.9824 0.3210 0.0000
vt 0.9755 0.6632 0.0000
vt 0.0457 0.6632 0.0000
# 72 texture coords

g Box025
usemtl 07___Default
f 1/1/1 2/2/1 3/3/1 
f 3/3/1 4/4/1 1/1/1 
f 5/5/2 6/6/2 7/7/2 
f 7/7/2 8/8/2 5/5/2 
f 1/9/3 4/10/3 6/11/3 
f 6/11/3 5/12/3 1/9/3 
f 4/13/4 3/14/4 7/15/4 
f 7/15/4 6/16/4 4/13/4 
f 3/17/5 2/18/5 8/19/5 
f 8/19/5 7/20/5 3/17/5 
f 2/21/6 1/22/6 5/23/6 
f 5/23/6 8/24/6 2/21/6 
f 9/25/1 10/26/1 11/27/1 
f 11/27/1 12/28/1 9/25/1 
f 13/29/2 14/30/2 15/31/2 
f 15/31/2 16/32/2 13/29/2 
f 9/33/3 12/34/3 14/35/3 
f 14/35/3 13/36/3 9/33/3 
f 12/37/4 11/38/4 15/39/4 
f 15/39/4 14/40/4 12/37/4 
f 11/41/5 10/42/5 16/43/5 
f 16/43/5 15/44/5 11/41/5 
f 10/45/6 9/46/6 13/47/6 
f 13/47/6 16/48/6 10/45/6 
f 17/49/1 18/50/1 19/51/1 
f 19/51/1 20/52/1 17/49/1 
f 21/53/2 22/54/2 23/55/2 
f 23/55/2 24/56/2 21/53/2 
f 17/57/3 20/58/3 22/59/3 
f 22/59/3 21/60/3 17/57/3 
f 20/61/4 19/62/4 23/63/4 
f 23/63/4 22/64/4 20/61/4 
f 19/65/5 18/66/5 24/67/5 
f 24/67/5 23/68/5 19/65/5 
f 18/69/6 17/70/6 21/71/6 
f 21/71/6 24/72/6 18/69/6 
# 36 faces

