# 3ds Max Wavefront OBJ Exporter v0.97b - (c)2007 guruware
# File Created: 19.03.2014 20:02:42

mtllib mainblockrightrooffront.mtl

#
# object Box175
#

v  -638.4114 115.3245 411.5719
v  -650.6772 115.3245 342.0052
v  -639.0070 115.3245 339.9506
v  -626.7411 115.3245 409.5172
v  -632.6031 138.2792 376.2726
v  -633.1101 138.2792 373.3929
v  -644.7800 151.4819 375.4505
v  -644.2729 151.4819 378.3302
v  -638.4114 120.8414 411.5719
v  -626.7411 120.8414 409.5172
v  -639.0070 120.8414 339.9506
v  -650.6772 120.8414 342.0052
# 12 vertices

vn 0.0000 -1.0000 0.0000
vn 0.8826 0.4437 -0.1554
vn 0.7651 0.4120 0.4948
vn 0.8152 0.3584 0.4550
vn 0.2873 0.6896 0.6648
vn 0.1185 0.7300 0.6731
vn 0.9848 -0.0000 -0.1736
vn 0.9849 -0.0003 -0.1734
vn 0.9848 -0.0001 -0.1736
vn 0.9848 0.0000 -0.1736
vn 0.5901 0.4774 -0.6510
vn 0.7494 0.4101 -0.5198
vn 0.0239 0.5402 -0.8412
vn -0.1479 0.5217 -0.8402
vn -0.9848 0.0000 0.1736
vn -0.9848 -0.0001 0.1734
vn -0.9848 -0.0001 0.1735
vn -0.9848 -0.0000 0.1736
vn -0.1734 0.0000 -0.9849
vn 0.1734 -0.0000 0.9849
# 20 vertex normals

vt 1.0515 0.7298 0.0000
vt 0.5719 0.7298 0.0000
vt 0.5719 0.6493 0.0000
vt 1.0515 0.6493 0.0000
vt 0.2992 0.7636 0.0000
vt 0.3190 0.7636 0.0000
vt 0.3190 0.9261 0.0000
vt 0.2992 0.9261 0.0000
vt 0.3690 0.7818 0.0000
vt 0.3690 0.5654 0.0000
vt 0.7780 0.5654 0.0000
vt 0.7781 0.7818 0.0000
vt 0.5496 0.5490 0.0000
vt 0.0700 0.5490 0.0000
vt 0.6633 0.1300 0.0000
vt 0.4148 0.3672 0.0000
vt 0.3949 0.3667 0.0000
vt 0.1571 0.1174 0.0000
vt 0.1580 0.0816 0.0000
vt 0.6642 0.0942 0.0000
vt 0.8019 0.4837 0.0000
vt 0.8824 0.4837 0.0000
vt 0.8824 0.5516 0.0000
vt 0.8019 0.5516 0.0000
vt 0.0700 0.4811 0.0000
vt 0.5496 0.4811 0.0000
vt 0.5719 0.7574 0.0000
vt 0.6523 0.7574 0.0000
vt 0.6523 0.8253 0.0000
vt 0.5719 0.8253 0.0000
# 30 texture coords

g Box175
usemtl 08___Default
f 1/1/1 2/2/1 3/3/1 
f 3/3/1 4/4/1 1/1/1 
f 5/5/2 6/6/2 7/7/2 
f 7/7/2 8/8/2 5/5/2 
f 5/9/3 8/10/4 9/11/5 
f 9/11/5 10/12/6 5/9/3 
f 11/13/7 6/6/8 5/5/9 
f 5/5/9 10/14/10 11/13/7 
f 7/10/11 6/11/12 11/12/13 
f 11/12/13 12/9/14 7/10/11 
f 9/15/15 8/16/16 7/17/17 
f 7/17/17 12/18/15 9/15/15 
f 9/15/18 12/18/18 2/19/18 
f 2/19/18 1/20/18 9/15/18 
f 12/21/19 11/22/19 3/23/19 
f 3/23/19 2/24/19 12/21/19 
f 11/13/10 10/14/10 4/25/10 
f 4/25/10 3/26/10 11/13/10 
f 10/27/20 9/28/20 1/29/20 
f 1/29/20 4/30/20 10/27/20 
# 20 faces

