# 3ds Max Wavefront OBJ Exporter v0.97b - (c)2007 guruware
# File Created: 19.03.2014 20:02:53

mtllib mainblockrightroof.mtl

#
# object Object003
#

v  -612.5576 116.2811 406.8102
v  -624.0402 116.2811 337.6740
v  -570.9980 116.2811 328.8643
v  -559.5153 116.2811 398.0005
v  -589.0563 146.8222 402.9070
v  -583.0165 146.8222 401.9038
v  -594.4991 146.8222 332.7675
v  -600.5391 146.8222 333.7707
v  -549.7139 116.2811 396.3727
v  -561.1966 116.2811 327.2364
v  -508.1543 116.2811 318.4267
v  -496.6716 116.2811 387.5630
v  -526.2127 146.8222 392.4694
v  -520.1728 146.8222 391.4662
v  -531.6555 146.8222 322.3300
v  -537.6954 146.8222 323.3331
v  -487.1438 116.2811 385.9805
v  -498.6265 116.2811 316.8442
v  -445.5843 116.2811 308.0345
v  -434.1016 116.2811 377.1708
v  -463.6426 146.8222 382.0772
v  -457.6027 146.8222 381.0741
v  -469.0854 146.8222 311.9378
v  -475.1253 146.8222 312.9409
v  -423.9365 116.2811 375.4826
v  -435.4192 116.2811 306.3463
v  -382.3769 116.2811 297.5366
v  -370.8942 116.2811 366.6729
v  -400.4353 146.8222 371.5793
v  -394.3954 146.8222 370.5762
v  -405.8781 146.8222 301.4399
v  -411.9180 146.8222 302.4431
v  -361.4224 116.2811 365.0997
v  -372.9051 116.2811 295.9634
v  -319.8628 116.2811 287.1537
v  -308.3801 116.2811 356.2900
v  -337.9212 146.8222 361.1964
v  -331.8813 146.8222 360.1932
v  -343.3640 146.8222 291.0570
v  -349.4039 146.8222 292.0601
# 40 vertices

vn 0.0000 -1.0000 -0.0000
vn 0.0000 1.0000 -0.0000
vn 0.1638 0.0000 0.9865
vn 0.8536 0.5013 -0.1418
vn -0.1638 0.0000 -0.9865
vn -0.8536 0.5013 0.1418
# 6 vertex normals

vt 0.7483 0.9542 0.0000
vt 0.0900 0.9542 0.0000
vt 0.0900 0.6568 0.0000
vt 0.7483 0.6568 0.0000
vt -0.0805 0.8403 0.0000
vt -0.0805 0.7756 0.0000
vt 1.1761 0.7756 0.0000
vt 1.1761 0.8403 0.0000
vt 0.1001 0.0684 0.0000
vt 0.7217 0.0800 0.0000
vt 0.4228 0.3583 0.0000
vt 0.3818 0.3576 0.0000
vt 1.0757 0.9825 0.0000
vt -0.0171 0.9825 0.0000
vt -0.0171 0.6049 0.0000
vt 1.0757 0.6049 0.0000
vt -0.0114 0.5969 0.0000
vt 1.0814 0.5969 0.0000
vt 1.0814 0.9745 0.0000
vt -0.0114 0.9745 0.0000
# 20 texture coords

g Object003
usemtl 08___Default
f 1/1/1 2/2/1 3/3/1 
f 3/3/1 4/4/1 1/1/1 
f 5/5/2 6/6/2 7/7/2 
f 7/7/2 8/8/2 5/5/2 
f 1/9/3 4/10/3 6/11/3 
f 6/11/3 5/12/3 1/9/3 
f 4/13/4 3/14/4 7/15/4 
f 7/15/4 6/16/4 4/13/4 
f 3/9/5 2/10/5 8/11/5 
f 8/11/5 7/12/5 3/9/5 
f 2/17/6 1/18/6 5/19/6 
f 5/19/6 8/20/6 2/17/6 
f 9/1/1 10/2/1 11/3/1 
f 11/3/1 12/4/1 9/1/1 
f 13/5/2 14/6/2 15/7/2 
f 15/7/2 16/8/2 13/5/2 
f 9/9/3 12/10/3 14/11/3 
f 14/11/3 13/12/3 9/9/3 
f 12/13/4 11/14/4 15/15/4 
f 15/15/4 14/16/4 12/13/4 
f 11/9/5 10/10/5 16/11/5 
f 16/11/5 15/12/5 11/9/5 
f 10/17/6 9/18/6 13/19/6 
f 13/19/6 16/20/6 10/17/6 
f 17/1/1 18/2/1 19/3/1 
f 19/3/1 20/4/1 17/1/1 
f 21/5/2 22/6/2 23/7/2 
f 23/7/2 24/8/2 21/5/2 
f 17/9/3 20/10/3 22/11/3 
f 22/11/3 21/12/3 17/9/3 
f 20/13/4 19/14/4 23/15/4 
f 23/15/4 22/16/4 20/13/4 
f 19/9/5 18/10/5 24/11/5 
f 24/11/5 23/12/5 19/9/5 
f 18/17/6 17/18/6 21/19/6 
f 21/19/6 24/20/6 18/17/6 
f 25/1/1 26/2/1 27/3/1 
f 27/3/1 28/4/1 25/1/1 
f 29/5/2 30/6/2 31/7/2 
f 31/7/2 32/8/2 29/5/2 
f 25/9/3 28/10/3 30/11/3 
f 30/11/3 29/12/3 25/9/3 
f 28/13/4 27/14/4 31/15/4 
f 31/15/4 30/16/4 28/13/4 
f 27/9/5 26/10/5 32/11/5 
f 32/11/5 31/12/5 27/9/5 
f 26/17/6 25/18/6 29/19/6 
f 29/19/6 32/20/6 26/17/6 
f 33/1/1 34/2/1 35/3/1 
f 35/3/1 36/4/1 33/1/1 
f 37/5/2 38/6/2 39/7/2 
f 39/7/2 40/8/2 37/5/2 
f 33/9/3 36/10/3 38/11/3 
f 38/11/3 37/12/3 33/9/3 
f 36/13/4 35/14/4 39/15/4 
f 39/15/4 38/16/4 36/13/4 
f 35/9/5 34/10/5 40/11/5 
f 40/11/5 39/12/5 35/9/5 
f 34/17/6 33/18/6 37/19/6 
f 37/19/6 40/20/6 34/17/6 
# 60 faces

