# 3ds Max Wavefront OBJ Exporter v0.97b - (c)2007 guruware
# File Created: 19.03.2014 20:01:55

mtllib mainblockleftrooffront.mtl

#
# object Box176
#

v  -638.5980 115.3245 273.1949
v  -666.3046 115.3245 208.2156
v  -655.4032 115.3245 203.5706
v  -627.6965 115.3245 268.5498
v  -640.9374 138.2792 237.4975
v  -642.0836 138.2792 234.8076
v  -652.9839 151.4819 239.4553
v  -651.8376 151.4819 242.1453
v  -638.5980 120.8414 273.1949
v  -627.6965 120.8414 268.5498
v  -655.4032 120.8414 203.5706
v  -666.3046 120.8414 208.2156
# 12 vertices

vn 0.0000 -1.0000 0.0000
vn 0.0000 -1.0000 -0.0000
vn 0.8244 0.4437 -0.3513
vn 0.8573 0.4120 0.3086
vn 0.8971 0.3584 0.2585
vn 0.4304 0.6896 0.5824
vn 0.2679 0.7300 0.6288
vn 0.9199 -0.0000 -0.3922
vn 0.9200 -0.0003 -0.3920
vn 0.9199 -0.0001 -0.3922
vn 0.9199 0.0000 -0.3922
vn 0.4273 0.4774 -0.7678
vn 0.6122 0.4101 -0.6760
vn -0.1673 0.5402 -0.8248
vn -0.3344 0.5217 -0.7849
vn -0.9199 0.0000 0.3922
vn -0.9200 -0.0001 0.3920
vn -0.9199 -0.0001 0.3921
vn -0.9199 -0.0000 0.3922
vn -0.3920 0.0000 -0.9200
vn 0.3920 -0.0000 0.9200
# 21 vertex normals

vt 1.0515 0.7298 0.0000
vt 0.5719 0.7298 0.0000
vt 0.5719 0.6493 0.0000
vt 1.0515 0.6493 0.0000
vt 0.2992 0.7636 0.0000
vt 0.3190 0.7636 0.0000
vt 0.3190 0.9261 0.0000
vt 0.2992 0.9261 0.0000
vt 0.3690 0.7818 0.0000
vt 0.3690 0.5654 0.0000
vt 0.7780 0.5654 0.0000
vt 0.7781 0.7818 0.0000
vt 0.5496 0.5490 0.0000
vt 0.0700 0.5490 0.0000
vt 0.6633 0.1300 0.0000
vt 0.4148 0.3672 0.0000
vt 0.3949 0.3667 0.0000
vt 0.1571 0.1174 0.0000
vt 0.1580 0.0816 0.0000
vt 0.6642 0.0942 0.0000
vt 0.8019 0.4837 0.0000
vt 0.8824 0.4837 0.0000
vt 0.8824 0.5516 0.0000
vt 0.8019 0.5516 0.0000
vt 0.0700 0.4811 0.0000
vt 0.5496 0.4811 0.0000
vt 0.5719 0.7574 0.0000
vt 0.6523 0.7574 0.0000
vt 0.6523 0.8253 0.0000
vt 0.5719 0.8253 0.0000
# 30 texture coords

g Box176
usemtl 08___Default
f 1/1/1 2/2/2 3/3/2 
f 3/3/2 4/4/1 1/1/1 
f 5/5/3 6/6/3 7/7/3 
f 7/7/3 8/8/3 5/5/3 
f 5/9/4 8/10/5 9/11/6 
f 9/11/6 10/12/7 5/9/4 
f 11/13/8 6/6/9 5/5/10 
f 5/5/10 10/14/11 11/13/8 
f 7/10/12 6/11/13 11/12/14 
f 11/12/14 12/9/15 7/10/12 
f 9/15/16 8/16/17 7/17/18 
f 7/17/18 12/18/16 9/15/16 
f 9/15/19 12/18/19 2/19/19 
f 2/19/19 1/20/19 9/15/19 
f 12/21/20 11/22/20 3/23/20 
f 3/23/20 2/24/20 12/21/20 
f 11/13/11 10/14/11 4/25/11 
f 4/25/11 3/26/11 11/13/11 
f 10/27/21 9/28/21 1/29/21 
f 1/29/21 4/30/21 10/27/21 
# 20 faces

