# 3ds Max Wavefront OBJ Exporter v0.97b - (c)2007 guruware
# File Created: 19.03.2014 19:59:54

mtllib mainblockleft.mtl

#
# object Box177
#

v  -637.9709 0.4308 273.3354
v  -665.8920 0.4308 207.8533
v  -354.6743 0.4308 75.1524
v  -326.7532 0.4308 140.6346
v  -326.7532 116.8500 140.6346
v  -354.6743 116.8500 75.1524
v  -665.8920 116.8500 207.8532
v  -637.9709 116.8500 273.3354
# 8 vertices

vn 0.0000 -1.0000 0.0000
vn -0.0000 1.0000 -0.0000
vn 0.3922 -0.0000 0.9199
vn 0.9199 -0.0000 -0.3922
vn 0.9199 0.0000 -0.3922
vn -0.3922 -0.0000 -0.9199
vn -0.3922 0.0000 -0.9199
vn -0.9199 -0.0000 0.3922
# 8 vertex normals

vt 0.5565 0.8750 0.0000
vt 0.5565 0.9900 0.0000
vt 0.0100 0.9900 0.0000
vt 0.0100 0.8750 0.0000
vt -0.2687 0.8603 0.0000
vt -0.2687 0.3935 0.0000
vt 1.0702 0.3935 0.0000
vt 1.0702 0.8603 0.0000
vt -0.3281 0.2341 0.0000
vt 1.2948 0.2341 0.0000
vt 1.2948 1.0412 0.0000
vt -0.3281 1.0412 0.0000
vt 0.9857 0.0884 0.0000
vt 0.9857 0.9827 0.0000
vt 0.5718 0.9827 0.0000
vt 0.5718 0.0884 0.0000
# 16 texture coords

g Box177
usemtl 09___Default
f 1/1/1 2/2/1 3/3/1 
f 3/3/1 4/4/1 1/1/1 
f 5/5/2 6/6/2 7/7/2 
f 7/7/2 8/8/2 5/5/2 
f 5/9/3 8/10/3 1/11/3 
f 1/11/3 4/12/3 5/9/3 
f 3/13/4 6/14/4 5/15/4 
f 5/15/4 4/16/5 3/13/4 
f 7/9/6 6/10/6 3/11/6 
f 3/11/6 2/12/7 7/9/6 
f 1/13/8 8/14/8 7/15/8 
f 7/15/8 2/16/8 1/13/8 
# 12 faces

